<svg width="44" height="44" viewBox="0 0 44 44" fill="none" xmlns="http://www.w3.org/2000/svg">
<path d="M21.9982 5.99973C23.1029 5.99979 23.9981 6.89509 23.9982 7.99973C23.9982 8.33638 23.9137 8.65299 23.7668 8.93137L34.3263 14.8982C34.6842 14.3564 35.2984 13.9988 35.9963 13.9988C37.101 13.9988 37.9971 14.8941 37.9972 15.9988C37.9972 17.0695 37.1555 17.941 36.0978 17.9939V26.0017C37.1555 26.0545 37.9972 26.927 37.9972 27.9978C37.9972 29.1025 37.101 29.9978 35.9963 29.9978C35.3137 29.9977 34.7117 29.6555 34.3507 29.1335L23.7707 35.072C23.9154 35.3487 23.9982 35.6629 23.9982 35.9968C23.9982 37.1016 23.103 37.9967 21.9982 37.9968C20.8934 37.9968 19.9972 37.1016 19.9972 35.9968C19.9972 35.6776 20.0742 35.3768 20.2072 35.1091L9.63102 29.1511C9.26875 29.6625 8.67455 29.9976 8.00016 29.9978C6.8954 29.9978 5.99925 29.1025 5.99919 27.9978C5.99919 26.9398 6.82073 26.0752 7.86052 26.0036V17.9919C6.82076 17.9203 5.99919 17.0567 5.99919 15.9988C5.99936 14.8941 6.89547 13.9988 8.00016 13.9988C8.68968 13.9989 9.29781 14.3477 9.65739 14.8786L20.2101 8.89328C20.0754 8.62418 19.9972 8.32115 19.9972 7.99973C19.9974 6.89506 20.8935 5.99973 21.9982 5.99973ZM9.97477 28.2986C9.96363 28.3723 9.94881 28.4445 9.92985 28.5154L20.6271 34.5417C20.6454 34.5245 20.6639 34.5075 20.6828 34.4909L16.3381 28.2986H9.97477ZM23.258 34.4431C23.285 34.4651 23.3102 34.4891 23.3361 34.5124L34.0597 28.4939C34.0434 28.4299 34.0307 28.3648 34.0207 28.2986H27.5871L23.258 34.4431ZM21.2843 34.1296C21.3869 34.0904 21.4928 34.0569 21.6027 34.0349V28.2986H17.1935L21.2843 34.1296ZM22.3029 34.0212C22.4196 34.0391 22.5326 34.0671 22.6418 34.1042L26.7316 28.2986H22.3029V34.0212ZM9.95427 27.5788C9.95568 27.5855 9.95878 27.5917 9.96012 27.5984H15.8468L14.4709 25.6364L9.95427 27.5788ZM15.1271 25.3532L16.7023 27.5984H21.6027V22.8562C21.499 22.8162 21.4036 22.7601 21.3205 22.6892L15.1271 25.3532ZM22.6007 22.6736C22.5139 22.7513 22.4136 22.8134 22.3029 22.8562V27.5984H27.2238L28.8097 25.3454L22.6007 22.6736ZM28.0802 27.5984H34.0353C34.0357 27.5964 34.0359 27.5944 34.0363 27.5925L29.467 25.6277L28.0802 27.5984ZM29.8791 25.0427L34.298 26.9431C34.3464 26.8653 34.3989 26.7906 34.4572 26.7204L31.5812 22.6257L29.8791 25.0427ZM9.51481 26.6941C9.57847 26.768 9.6362 26.8467 9.68864 26.9294L14.0597 25.0505L12.3605 22.6277L9.51481 26.6941ZM32.0099 22.0173L34.9953 26.2673C35.1216 26.1941 35.2558 26.133 35.3976 26.0886V17.9079C35.2647 17.8663 35.1381 17.8109 35.0187 17.7439L32.0099 22.0173ZM8.94645 17.7614C8.82466 17.827 8.69503 17.8793 8.55973 17.9187V26.0779C8.70415 26.1199 8.84196 26.177 8.97087 26.2488L11.9318 22.0173L8.94645 17.7614ZM12.7863 22.0173L14.716 24.7673L20.9855 22.07C20.9817 22.0392 20.9796 22.0079 20.9787 21.9763L14.7043 19.2771L12.7863 22.0173ZM22.924 21.9988C22.9231 22.0158 22.9228 22.0327 22.9211 22.0495L29.2218 24.7595L31.1535 22.0173L29.2345 19.2849L22.924 21.9988ZM29.8918 19.0027L31.5822 21.4089L34.4767 17.2966C34.4221 17.2327 34.3707 17.166 34.3244 17.0954L29.8918 19.0027ZM9.66325 17.1091C9.61217 17.1855 9.55416 17.2564 9.49333 17.3249L12.3586 21.4079L14.047 18.9948L9.66325 17.1091ZM22.3029 21.0388C22.4614 21.0999 22.5992 21.2017 22.7052 21.3308L28.8234 18.6989L27.2463 16.4529H22.3029V21.0388ZM15.1144 18.6911L21.2131 21.3142C21.3173 21.1927 21.4507 21.0973 21.6027 21.0388V16.4529H16.6818L15.1144 18.6911ZM29.4806 18.4167L34.048 16.4529H28.1007L29.4806 18.4167ZM9.94255 16.4665L14.4572 18.4089L15.8263 16.4529H9.94645C9.94538 16.4575 9.94365 16.4619 9.94255 16.4665ZM9.94059 15.5232C9.95893 15.5982 9.97298 15.6746 9.98259 15.7527H16.3166L20.6857 9.50754C20.6676 9.49177 20.6495 9.47609 20.632 9.45969L9.94059 15.5232ZM17.1711 15.7527H21.6027V9.96066C21.4942 9.9389 21.3897 9.90645 21.2882 9.86789L17.1711 15.7527ZM22.6398 9.89328C22.5313 9.93004 22.4188 9.95659 22.3029 9.97434V15.7527H26.7541L22.6398 9.89328ZM23.3302 9.48801C23.3053 9.51034 23.2811 9.53334 23.255 9.55441L27.6095 15.7527H34.0129C34.0215 15.6821 34.0332 15.6127 34.049 15.5446L23.3302 9.48801Z" fill="#FFAA01"/>
<path d="M12.0605 2.37335C16.8416 -0.0477826 22.3421 -0.640909 27.5292 0.706354C32.7164 2.05365 37.2328 5.24889 40.2314 9.69073C43.0236 13.8268 44.3213 18.7795 43.9296 23.7327C43.8815 24.3404 43.3242 24.7672 42.7197 24.6888C42.1151 24.6103 41.6916 24.0556 41.7363 23.4476C42.0607 19.0287 40.8932 14.6161 38.4023 10.9261C35.7047 6.93018 31.6409 4.05618 26.9745 2.84405C22.308 1.63198 17.3588 2.16493 13.0576 4.34307C9.15506 6.31936 6.02925 9.52668 4.15033 13.4495L5.2431 13.7034C5.39309 13.7382 5.44973 13.922 5.34467 14.0345L2.11908 17.4876C2.014 17.6001 1.82708 17.5567 1.78217 17.4095L0.403259 12.8899C0.3584 12.7428 0.489703 12.6025 0.639587 12.637L1.95599 12.9417C1.96746 12.9078 1.98174 12.8745 1.99701 12.8411C4.06533 8.32337 7.60842 4.62785 12.0605 2.37335Z" fill="url(#paint0_linear_85_2)"/>
<path d="M1.29462 19.1315C1.89467 19.2146 2.31096 19.768 2.26142 20.3718C1.89734 24.7878 3.02498 29.2111 5.48114 32.9245C8.13954 36.9435 12.1717 39.8556 16.8229 41.1149C21.4743 42.3743 26.4257 41.8952 30.7487 39.7663C34.7427 37.7993 37.9474 34.5489 39.861 30.5524C39.8809 30.511 39.9035 30.4714 39.9274 30.4333L38.7888 30.0807C38.6418 30.0352 38.599 29.8475 38.7116 29.7429L42.1774 26.5339C42.2904 26.4297 42.4742 26.4866 42.5085 26.6364L43.5544 31.2419C43.5885 31.392 43.4466 31.5228 43.2995 31.4772L41.9841 31.07C41.9715 31.1778 41.9416 31.2859 41.8923 31.3903C39.773 35.8798 36.1906 39.5312 31.7175 41.7341C26.9155 44.0988 21.4163 44.6319 16.2497 43.2331C11.0832 41.8343 6.60405 38.5997 3.65107 34.1354C0.900337 29.9767 -0.35056 25.0165 0.0846596 20.071C0.137779 19.4674 0.694481 19.0485 1.29462 19.1315Z" fill="url(#paint1_linear_85_2)"/>
<defs>
<linearGradient id="paint0_linear_85_2" x1="4.18526" y1="8.38076" x2="43.9912" y2="17.8421" gradientUnits="userSpaceOnUse">
<stop stop-color="#006D50"/>
<stop offset="1" stop-color="#04D69D"/>
</linearGradient>
<linearGradient id="paint1_linear_85_2" x1="-0.000301312" y1="26.758" x2="40.6672" y2="35.9299" gradientUnits="userSpaceOnUse">
<stop stop-color="#04D69D"/>
<stop offset="1" stop-color="#006D50"/>
</linearGradient>
</defs>
</svg>
